<svg width="13" height="13" viewBox="0 0 13 13" fill="none" xmlns="http://www.w3.org/2000/svg">
<path d="M11.3999 6.93125L7.74363 10.5875C7.62915 10.702 7.47389 10.7663 7.31199 10.7663C7.1501 10.7663 6.99483 10.702 6.88035 10.5875C6.76587 10.473 6.70156 10.3178 6.70156 10.1559C6.70156 9.99396 6.76587 9.8387 6.88035 9.72422L9.49609 7.10949H2.03125C1.86963 7.10949 1.71464 7.04529 1.60036 6.93101C1.48608 6.81673 1.42188 6.66174 1.42188 6.50012C1.42188 6.3385 1.48608 6.18351 1.60036 6.06923C1.71464 5.95495 1.86963 5.89074 2.03125 5.89074H9.49609L6.88137 3.27449C6.76689 3.16002 6.70258 3.00475 6.70258 2.84285C6.70258 2.68096 6.76689 2.52569 6.88137 2.41121C6.99585 2.29673 7.15111 2.23242 7.31301 2.23242C7.4749 2.23242 7.63017 2.29673 7.74465 2.41121L11.4009 6.06746C11.4577 6.12415 11.5028 6.19151 11.5335 6.26566C11.5642 6.33982 11.58 6.41931 11.5799 6.49957C11.5798 6.57983 11.5638 6.65929 11.5329 6.73337C11.5021 6.80745 11.4568 6.8747 11.3999 6.93125Z" fill="#E86F25"/>
</svg>
