<svg width="13" height="13" viewBox="0 0 13 13" fill="none" xmlns="http://www.w3.org/2000/svg">
<path opacity="0.2" d="M10.9688 6.90625V10.9688H2.03125V4.46875L5.28125 6.90625V4.46875L8.53125 6.90625H10.9688Z" fill="#E86F25"/>
<path d="M5.89062 8.9375C5.89062 9.04524 5.84782 9.14858 5.77164 9.22476C5.69545 9.30095 5.59212 9.34375 5.48438 9.34375H4.0625C3.95476 9.34375 3.85142 9.30095 3.77524 9.22476C3.69905 9.14858 3.65625 9.04524 3.65625 8.9375C3.65625 8.82976 3.69905 8.72642 3.77524 8.65024C3.85142 8.57405 3.95476 8.53125 4.0625 8.53125H5.48438C5.59212 8.53125 5.69545 8.57405 5.77164 8.65024C5.84782 8.72642 5.89062 8.82976 5.89062 8.9375ZM8.9375 8.53125H7.51562C7.40788 8.53125 7.30455 8.57405 7.22836 8.65024C7.15218 8.72642 7.10938 8.82976 7.10938 8.9375C7.10938 9.04524 7.15218 9.14858 7.22836 9.22476C7.30455 9.30095 7.40788 9.34375 7.51562 9.34375H8.9375C9.04524 9.34375 9.14858 9.30095 9.22476 9.22476C9.30095 9.14858 9.34375 9.04524 9.34375 8.9375C9.34375 8.82976 9.30095 8.72642 9.22476 8.65024C9.14858 8.57405 9.04524 8.53125 8.9375 8.53125ZM12.5938 10.9688C12.5938 11.0765 12.5509 11.1798 12.4748 11.256C12.3986 11.3322 12.2952 11.375 12.1875 11.375H0.8125C0.704756 11.375 0.601425 11.3322 0.525238 11.256C0.449051 11.1798 0.40625 11.0765 0.40625 10.9688C0.40625 10.861 0.449051 10.7577 0.525238 10.6815C0.601425 10.6053 0.704756 10.5625 0.8125 10.5625H1.625V4.46875C1.625 4.3933 1.64601 4.31935 1.68567 4.25517C1.72534 4.19099 1.78209 4.13913 1.84957 4.10539C1.91705 4.07165 1.99259 4.05737 2.06773 4.06414C2.14287 4.07092 2.21464 4.09848 2.275 4.14375L4.875 6.09375V4.46875C4.875 4.3933 4.89601 4.31935 4.93567 4.25517C4.97534 4.19099 5.03209 4.13913 5.09957 4.10539C5.16705 4.07165 5.24259 4.05737 5.31773 4.06414C5.39287 4.07092 5.46464 4.09848 5.525 4.14375L7.49227 5.61895L8.0793 1.51023C8.10773 1.31694 8.20452 1.14024 8.35211 1.01222C8.4997 0.884197 8.6883 0.813337 8.88367 0.8125H9.80383C9.9992 0.813337 10.1878 0.884197 10.3354 1.01222C10.483 1.14024 10.5798 1.31694 10.6082 1.51023L11.3699 6.84887C11.3699 6.84887 11.374 6.88848 11.374 6.90625V10.5625H12.1865C12.2399 10.5624 12.2929 10.5728 12.3423 10.5931C12.3917 10.6135 12.4366 10.6434 12.4744 10.6811C12.5122 10.7189 12.5422 10.7637 12.5627 10.813C12.5832 10.8624 12.5938 10.9153 12.5938 10.9688ZM8.23367 6.175L8.66684 6.5H10.5005L9.80383 1.625H8.88367L8.23367 6.175ZM2.4375 10.5625H10.5625V7.3125H8.53125C8.44335 7.3125 8.35782 7.28399 8.2875 7.23125L7.55625 6.68281L5.6875 5.28125V6.90625C5.6875 6.9817 5.66649 7.05565 5.62683 7.11983C5.58716 7.18401 5.53041 7.23587 5.46293 7.26961C5.39545 7.30335 5.31991 7.31763 5.24477 7.31086C5.16963 7.30408 5.09786 7.27652 5.0375 7.23125L2.4375 5.28125V10.5625Z" fill="#E86F25"/>
</svg>
