<svg width="11" height="10" viewBox="0 0 11 10" fill="none" xmlns="http://www.w3.org/2000/svg">
<path d="M9.96875 1.84375H7.9375V1.4375C7.9375 1.11427 7.8091 0.804274 7.58054 0.575714C7.35198 0.347154 7.04198 0.21875 6.71875 0.21875H4.28125C3.95802 0.21875 3.64802 0.347154 3.41946 0.575714C3.1909 0.804274 3.0625 1.11427 3.0625 1.4375V1.84375H1.03125C0.815762 1.84375 0.609099 1.92935 0.456726 2.08173C0.304352 2.2341 0.21875 2.44076 0.21875 2.65625V9.15625C0.21875 9.37174 0.304352 9.5784 0.456726 9.73077C0.609099 9.88315 0.815762 9.96875 1.03125 9.96875H9.96875C10.1842 9.96875 10.3909 9.88315 10.5433 9.73077C10.6956 9.5784 10.7812 9.37174 10.7812 9.15625V2.65625C10.7812 2.44076 10.6956 2.2341 10.5433 2.08173C10.3909 1.92935 10.1842 1.84375 9.96875 1.84375ZM3.875 1.4375C3.875 1.32976 3.9178 1.22642 3.99399 1.15024C4.07017 1.07405 4.17351 1.03125 4.28125 1.03125H6.71875C6.82649 1.03125 6.92983 1.07405 7.00601 1.15024C7.0822 1.22642 7.125 1.32976 7.125 1.4375V1.84375H3.875V1.4375ZM7.125 2.65625V9.15625H3.875V2.65625H7.125ZM1.03125 2.65625H3.0625V9.15625H1.03125V2.65625ZM9.96875 9.15625H7.9375V2.65625H9.96875V9.15625Z" fill="#E86F25"/>
</svg>
