<svg width="13" height="13" viewBox="0 0 13 13" fill="none" xmlns="http://www.w3.org/2000/svg">
<path opacity="0.2" d="M11.372 8.84003C11.2931 9.42963 11.0027 9.9705 10.5549 10.3621C10.1071 10.7536 9.53235 10.9692 8.9375 10.9688C7.10585 10.9688 5.34922 10.2412 4.05404 8.94599C2.75887 7.65082 2.03125 5.89419 2.03125 4.06253C2.0308 3.46768 2.2464 2.89292 2.63797 2.44512C3.02953 1.99732 3.57041 1.70698 4.16 1.62808C4.24716 1.61773 4.33533 1.63588 4.4113 1.67982C4.48728 1.72376 4.54699 1.79112 4.58149 1.87183L5.65449 4.26871C5.68086 4.33027 5.69159 4.39739 5.68575 4.46411C5.6799 4.53082 5.65765 4.59505 5.62098 4.65109L4.53578 5.94144C4.49729 5.99953 4.47452 6.06661 4.46972 6.13612C4.46491 6.20564 4.47823 6.27521 4.50836 6.33804C4.92832 7.19777 5.81699 8.07578 6.67926 8.49168C6.74242 8.52168 6.81231 8.53469 6.88204 8.52944C6.95177 8.52419 7.01892 8.50084 7.07688 8.46171L8.34641 7.38007C8.40267 7.34264 8.46738 7.31983 8.53468 7.31371C8.60198 7.30759 8.66975 7.31836 8.73184 7.34504L11.1267 8.41804C11.2078 8.45231 11.2755 8.51199 11.3198 8.5881C11.364 8.6642 11.3823 8.75262 11.372 8.84003Z" fill="#E97F3F"/>
<path d="M11.2922 8.04669L8.89993 6.9747L8.89333 6.97165C8.76913 6.91854 8.63365 6.89722 8.49915 6.90963C8.36464 6.92205 8.23535 6.9678 8.12297 7.04275C8.10974 7.05149 8.09703 7.06098 8.08489 7.07119L6.84887 8.1249C6.06582 7.74455 5.25739 6.9422 4.87704 6.16931L5.93227 4.91451C5.94243 4.90181 5.95208 4.88912 5.96122 4.87541C6.03456 4.76333 6.07906 4.63487 6.09075 4.50144C6.10245 4.36801 6.08097 4.23376 6.02825 4.11064V4.10455L4.95321 1.70818C4.88351 1.54734 4.76365 1.41335 4.61155 1.32622C4.45944 1.23909 4.28323 1.20349 4.10922 1.22474C3.42112 1.31529 2.78951 1.65322 2.33235 2.17541C1.8752 2.69761 1.62376 3.36837 1.625 4.0624C1.625 8.09443 4.90547 11.3749 8.93751 11.3749C9.63154 11.3761 10.3023 11.1247 10.8245 10.6675C11.3467 10.2104 11.6846 9.57878 11.7752 8.89068C11.7964 8.71673 11.7609 8.54057 11.6739 8.38847C11.5869 8.23637 11.453 8.11648 11.2922 8.04669ZM8.93751 10.5624C7.21418 10.5605 5.56197 9.87509 4.34339 8.65651C3.12481 7.43793 2.43939 5.78573 2.4375 4.0624C2.43559 3.56651 2.61425 3.08689 2.94011 2.71309C3.26596 2.3393 3.71674 2.09689 4.20825 2.03115C4.20805 2.03317 4.20805 2.03521 4.20825 2.03724L5.27465 4.42396L4.225 5.68029C4.21435 5.69255 4.20467 5.70562 4.19606 5.71939C4.11964 5.83665 4.07481 5.97167 4.06591 6.11135C4.05702 6.25103 4.08436 6.39064 4.14528 6.51666C4.60536 7.45763 5.55344 8.39861 6.50458 8.85818C6.63151 8.91853 6.77193 8.94492 6.91212 8.93478C7.0523 8.92463 7.18746 8.87829 7.30438 8.80029C7.31742 8.7915 7.32996 8.78201 7.34196 8.77185L8.57645 7.71865L10.9632 8.78759C10.9632 8.78759 10.9672 8.78759 10.9688 8.78759C10.9038 9.2798 10.6618 9.73148 10.2879 10.0581C9.91404 10.3848 9.43397 10.5641 8.93751 10.5624Z" fill="#E97F3F"/>
</svg>
