<svg width="13" height="13" viewBox="0 0 13 13" fill="none" xmlns="http://www.w3.org/2000/svg">
<path opacity="0.2" d="M11.375 4.0625L6.5 6.90625L1.625 4.0625L6.5 1.21875L11.375 4.0625Z" fill="#E86F25"/>
<path d="M11.7259 8.73434C11.7796 8.82745 11.7941 8.93803 11.7664 9.04187C11.7387 9.1457 11.671 9.23434 11.5781 9.28836L6.70312 12.1321C6.64101 12.1683 6.57039 12.1874 6.49848 12.1874C6.42657 12.1874 6.35595 12.1683 6.29383 12.1321L1.41883 9.28836C1.32727 9.23334 1.26106 9.14447 1.23454 9.04099C1.20803 8.93751 1.22333 8.82775 1.27715 8.73548C1.33096 8.6432 1.41896 8.57584 1.52208 8.54797C1.6252 8.52009 1.73515 8.53396 1.82812 8.58656L6.5 11.311L11.1719 8.58656C11.265 8.53291 11.3756 8.51833 11.4794 8.54603C11.5832 8.57372 11.6719 8.64143 11.7259 8.73434ZM11.1719 6.14906L6.5 8.87348L1.82812 6.14906C1.73562 6.10301 1.62905 6.09393 1.53009 6.12368C1.43114 6.15343 1.34723 6.21977 1.29547 6.3092C1.2437 6.39863 1.22795 6.50443 1.25144 6.60506C1.27492 6.70568 1.33587 6.79358 1.42188 6.85086L6.29688 9.69461C6.35899 9.73083 6.42961 9.74992 6.50152 9.74992C6.57343 9.74992 6.64405 9.73083 6.70617 9.69461L11.5812 6.85086C11.628 6.82437 11.6691 6.78884 11.7021 6.74634C11.7351 6.70384 11.7593 6.65521 11.7733 6.60327C11.7873 6.55134 11.7909 6.49713 11.7838 6.4438C11.7768 6.39047 11.7592 6.33908 11.7321 6.29261C11.7049 6.24614 11.6689 6.20551 11.626 6.17309C11.583 6.14067 11.5341 6.1171 11.482 6.10374C11.4299 6.09039 11.3756 6.08752 11.3224 6.0953C11.2691 6.10308 11.218 6.12135 11.1719 6.14906ZM1.21875 4.06246C1.21891 3.9913 1.23776 3.92144 1.27341 3.85986C1.30906 3.79828 1.36025 3.74714 1.42188 3.71156L6.29688 0.867811C6.35899 0.831587 6.42961 0.8125 6.50152 0.8125C6.57343 0.8125 6.64405 0.831587 6.70617 0.867811L11.5812 3.71156C11.6425 3.74734 11.6934 3.79857 11.7287 3.86013C11.7641 3.9217 11.7827 3.99146 11.7827 4.06246C11.7827 4.13346 11.7641 4.20322 11.7287 4.26479C11.6934 4.32635 11.6425 4.37758 11.5812 4.41336L6.70617 7.25711C6.64405 7.29333 6.57343 7.31242 6.50152 7.31242C6.42961 7.31242 6.35899 7.29333 6.29688 7.25711L1.42188 4.41336C1.36025 4.37778 1.30906 4.32664 1.27341 4.26506C1.23776 4.20348 1.21891 4.13362 1.21875 4.06246ZM2.43141 4.06246L6.5 6.43598L10.5686 4.06246L6.5 1.68894L2.43141 4.06246Z" fill="#E86F25"/>
</svg>
